SplineFontDB: 3.2
FontName: SingScript.sg_arrows
FullName: SingScript.sg "arrows" module
FamilyName: SingScript.sg
Weight: Regular
Copyright: Copyright (c) 2025, 05524F.sg (Singapore)
Version: v2
ItalicAngle: 0
UnderlinePosition: -100
UnderlineWidth: 67
Ascent: 600
Descent: 300
InvalidEm: 0
sfntRevision: 0x00010000
LayerCount: 2
Layer: 0 0 "Back" 1
Layer: 1 0 "Fore" 0
XUID: [1021 768 647112374 32286]
StyleMap: 0x0040
FSType: 0
OS2Version: 4
OS2_WeightWidthSlopeOnly: 0
OS2_UseTypoMetrics: 1
CreationTime: 1740441635
ModificationTime: 1753404795
PfmFamily: 65
TTFWeight: 400
TTFWidth: 5
LineGap: 81
VLineGap: 0
Panose: 3 0 5 3 0 0 0 0 0 0
OS2TypoAscent: 600
OS2TypoAOffset: 0
OS2TypoDescent: -300
OS2TypoDOffset: 0
OS2TypoLinegap: 81
OS2WinAscent: 590
OS2WinAOffset: 0
OS2WinDescent: 233
OS2WinDOffset: 0
HheadAscent: 590
HheadAOffset: 0
HheadDescent: -233
HheadDOffset: 0
OS2SubXSize: 585
OS2SubYSize: 630
OS2SubXOff: 0
OS2SubYOff: 126
OS2SupXSize: 585
OS2SupYSize: 630
OS2SupXOff: 0
OS2SupYOff: 432
OS2StrikeYSize: 44
OS2StrikeYPos: 232
OS2CapHeight: 467
OS2XHeight: 300
OS2Vendor: '5524'
OS2CodePages: 00000001.00000000
OS2UnicodeRanges: 80000003.10000000.00000000.00000000
MarkAttachClasses: 1
DEI: 91125
LangName: 1033 "" "" "" "" "" "Version v2"
Encoding: Custom
UnicodeInterp: none
NameList: AGL For New Fonts
DisplaySize: -48
AntiAlias: 1
FitToEm: 0
WidthSeparation: 50
WinInfo: 0 27 3
BeginPrivate: 6
BlueValues 21 [0 0 300 300 467 467]
OtherBlues 11 [-233 -233]
StdHW 4 [67]
StdVW 4 [67]
StemSnapH 33 [52 59 63 67 73 78 86 93 159 167]
StemSnapV 4 [67]
EndPrivate
Grid
0 -200 m 24
 351 -200 549 -200 900 -200 c 1048
0 -233 m 24
 351 -233 549 -233 900 -233 c 1048
250 211 m 24
 289 211 311 211 350 211 c 1048
250 100 m 24
 289 100 311 100 350 100 c 1048
250 -100 m 24
 289 -100 311 -100 350 -100 c 1048
250 -255 m 24
 289 -255 311 -255 350 -255 c 1048
100 511 m 24
 139 511 161 511 200 511 c 1048
100 400 m 24
 139 400 161 400 200 400 c 1048
100 200 m 24
 139 200 161 200 200 200 c 1048

StartChar: arrowleft
Encoding: 0 8592 0
Width: 817
Flags: HW
LayerCount: 2
Fore
SplineSet
218 306 m 0
 236 306 251 290 251 272 c 0
 251 261 246 251 238 245 c 2
 158.378947368 184 l 1
 758 184 l 2
 776 184 792 168 792 150 c 0
 792 132 776 116 758 116 c 2
 158.378947368 116 l 1
 238 55 l 2
 246 49 251 39 251 28 c 0
 251 10 236 -6 218 -6 c 0
 210 -6 203 -3 197 1 c 0
 38 123 38 123 38 123 c 2
 34 126 25 135 25 150 c 0
 25 160 29 170 38 177 c 2
 197 299 l 2
 203 303 210 306 218 306 c 0
EndSplineSet
EndChar

StartChar: arrowup
Encoding: 1 8593 1
Width: 361
Flags: HW
LayerCount: 2
Fore
SplineSet
215 -200 m 2
 215 -218 199 -234 181 -234 c 0
 163 -234 147 -218 147 -200 c 2
 147 401.651666488 l 1
 132.94360399 383.465005549 113.0772397 357.648186556 85 321 c 0
 79 313 69 308 58 308 c 0
 40 308 25 323 25 341 c 0
 25 349 28 356 32 362 c 2
 154 521 l 2
 161 530 171 534 181 534 c 0
 192.678515826 534 200.113857771 528.544490724 204.249909998 524.240667534 c 0
 206.495037181 522.079383356 208.466206058 519.632644726 210.086711619 516.977154529 c 2
 329 362 l 2
 333 356 336 349 336 341 c 0
 336 323 321 308 303 308 c 0
 292 308 282 313 276 321 c 2
 215 400.621052632 l 1
 215 -200 l 2
EndSplineSet
EndChar

StartChar: arrowright
Encoding: 2 8594 2
Width: 817
Flags: HW
LayerCount: 2
Fore
SplineSet
58 116 m 2
 40 116 25 132 25 150 c 0
 25 168 40 184 58 184 c 2
 658.824587917 184 l 1
 640.577599803 197.888049285 614.961333507 217.448978362 579 245 c 0
 571 251 566 261 566 272 c 0
 566 290 581 306 599 306 c 0
 607 306 614 303 620 299 c 2
 779 177 l 2
 788 170 792 160 792 150 c 0
 792 135 783 126 779 123 c 2
 779 123 779 123 620 1 c 0
 614 -3 607 -6 599 -6 c 0
 581 -6 566 10 566 28 c 0
 566 39 571 49 579 55 c 2
 659.263157895 116 l 1
 58 116 l 2
EndSplineSet
EndChar

StartChar: arrowdown
Encoding: 3 8595 3
Width: 361
Flags: HW
LayerCount: 2
Fore
SplineSet
25 -41 m 0
 25 -23 40 -8 58 -8 c 0
 69 -8 79 -13 85 -21 c 0
 113.0772397 -57.6481865563 132.94360399 -83.4650055492 147 -101.651666488 c 1
 147 500 l 2
 147 518 163 534 181 534 c 0
 199 534 215 518 215 500 c 2
 215 -100.621052632 l 1
 276 -21 l 2
 282 -13 292 -8 303 -8 c 0
 321 -8 336 -23 336 -41 c 0
 336 -49 333 -56 329 -62 c 2
 210.086711619 -216.977154529 l 2
 208.466202531 -219.632647715 206.495030095 -222.079389776 204.249899865 -224.240677675 c 0
 200.113844623 -228.544498181 192.678505236 -233.999998717 181 -234 c 0
 171 -234 161 -230 154 -221 c 2
 32 -62 l 2
 28 -56 25 -49 25 -41 c 0
EndSplineSet
EndChar

StartChar: arrowboth
Encoding: 4 8596 4
Width: 817
Flags: HW
LayerCount: 2
Fore
SplineSet
218 306 m 0
 236 306 251 290 251 272 c 0
 251 261 246 251 238 245 c 2
 158.378947368 184 l 1
 658.824587917 184 l 1
 640.577599803 197.888049285 614.961333507 217.448978362 579 245 c 0
 571 251 566 261 566 272 c 0
 566 290 581 306 599 306 c 0
 607 306 614 303 620 299 c 2
 779 177 l 2
 788 170 792 160 792 150 c 0
 792 135 783 126 779 123 c 2
 779 123 779 123 620 1 c 0
 614 -3 607 -6 599 -6 c 0
 581 -6 566 10 566 28 c 0
 566 39 571 49 579 55 c 2
 659.263157895 116 l 1
 158.378947368 116 l 1
 238 55 l 2
 246 49 251 39 251 28 c 0
 251 10 236 -6 218 -6 c 0
 210 -6 203 -3 197 1 c 0
 38 123 38 123 38 123 c 2
 34 126 25 135 25 150 c 0
 25 160 29 170 38 177 c 2
 197 299 l 2
 203 303 210 306 218 306 c 0
EndSplineSet
EndChar

StartChar: arrowupdn
Encoding: 5 8597 5
Width: 361
Flags: HW
LayerCount: 2
Fore
SplineSet
25 341 m 0
 25 349 28 356 32 362 c 2
 154 521 l 2
 161 530 171 534 181 534 c 0
 192.678515826 534 200.113857771 528.544490724 204.249909998 524.240667534 c 0
 206.495037181 522.079383356 208.466206058 519.632644726 210.086711619 516.977154529 c 2
 329 362 l 2
 333 356 336 349 336 341 c 0
 336 323 321 308 303 308 c 0
 292 308 282 313 276 321 c 2
 215 400.621052632 l 1
 215 -100.621052632 l 1
 276 -21 l 2
 282 -13 292 -8 303 -8 c 0
 321 -8 336 -23 336 -41 c 0
 336 -49 333 -56 329 -62 c 2
 210.086711619 -216.977154529 l 2
 208.466202531 -219.632647715 206.495030095 -222.079389776 204.249899865 -224.240677675 c 0
 200.113844623 -228.544498181 192.678505236 -233.999998717 181 -234 c 0
 171 -234 161 -230 154 -221 c 2
 32 -62 l 2
 28 -56 25 -49 25 -41 c 0
 25 -23 40 -8 58 -8 c 0
 69 -8 79 -13 85 -21 c 0
 113.0772397 -57.6481865563 132.94360399 -83.4650055492 147 -101.651666488 c 1
 147 401.651666488 l 1
 132.94360399 383.465005549 113.0772397 357.648186556 85 321 c 0
 79 313 69 308 58 308 c 0
 40 308 25 323 25 341 c 0
EndSplineSet
EndChar

StartChar: uni2196
Encoding: 6 8598 6
Width: 612
Flags: HW
LayerCount: 2
Fore
SplineSet
281.409179688 395 m 0
 288.409179688 388 291.409179688 380 291.409179688 371 c 0
 291.409179688 362 288.409179688 354 281.409179688 347 c 0
 274.409179688 340 266.409179688 338 257.409179688 338 c 0
 256.409179688 338 254.409179688 338 253.409179688 338 c 0
 207.612304688 343.909179688 175.258789062 348.072265625 152.403320312 351.005859375 c 1
 577.409179688 -74 l 2
 590.409179688 -87 590.409179688 -108 577.409179688 -121 c 0
 564.409179688 -134 543.409179688 -134 530.409179688 -121 c 2
 104.618164062 304.791015625 l 1
 118.409179688 203 l 2
 119.409179688 193 116.409179688 183 108.409179688 175 c 0
 101.409179688 168 94.4091796875 165 85.4091796875 165 c 0
 76.4091796875 165 68.4091796875 168 61.4091796875 175 c 0
 56.4091796875 180 52.4091796875 187 51.4091796875 194 c 0
 25.4091796875 393 25.4091796875 393 25.4091796875 393 c 2
 24.4091796875 397 24.4091796875 410 35.4091796875 421 c 0
 41.4091796875 427 49.4091796875 431 58.4091796875 431 c 0
 59.4091796875 431 62.4091796875 431 63.4091796875 431 c 2
 262.409179688 404 l 2
 269.409179688 403 276.409179688 400 281.409179688 395 c 0
EndSplineSet
EndChar

StartChar: uni2197
Encoding: 7 8599 7
Width: 612
Flags: HW
LayerCount: 2
Fore
SplineSet
81.75 -121 m 2
 68.75 -134 47.75 -134 34.75 -121 c 0
 21.75 -108 21.75 -87 34.75 -74 c 2
 459.787109375 351.037109375 l 1
 358.75 338 l 2
 357.75 338 354.75 338 353.75 338 c 0
 344.75 338 337.75 340 330.75 347 c 0
 323.75 354 320.75 362 320.75 371 c 0
 320.75 380 323.75 388 330.75 395 c 0
 335.75 400 342.75 403 349.75 404 c 0
 548.75 430 548.75 431 548.75 431 c 2
 549.75 431 550.75 431 552.75 431 c 0
 556.985351562 431 563.213867188 430.00390625 569.325195312 426.603515625 c 0
 571.986328125 425.12890625 574.489257812 423.260742188 576.75 421 c 0
 585.729492188 412.020507812 588.505859375 399.225585938 585.08203125 387.885742188 c 2
 559.75 194 l 2
 558.75 187 555.75 180 550.75 175 c 0
 543.75 168 535.75 165 526.75 165 c 0
 517.75 165 509.75 168 502.75 175 c 0
 495.75 182 493.75 190 493.75 199 c 0
 493.75 200.73828125 492.994140625 200.209960938 506.592773438 303.842773438 c 1
 81.75 -121 l 2
EndSplineSet
EndChar

StartChar: uni2198
Encoding: 8 8600 8
Width: 611
Flags: HW
LayerCount: 2
Fore
SplineSet
34.75 374 m 2
 21.75 387 21.75 408 34.75 421 c 0
 47.75 434 68.75 434 81.75 421 c 2
 506.787109375 -4.037109375 l 1
 493.75 97 l 2
 492.75 107 494.75 117 502.75 125 c 0
 509.75 132 517.75 135 526.75 135 c 0
 535.75 135 543.75 132 550.75 125 c 0
 555.75 120 558.75 113 559.75 106 c 2
 585.08203125 -87.8857421875 l 2
 586.934570312 -94.021484375 586.971679688 -100.584960938 585.193359375 -106.73828125 c 0
 583.931640625 -111.290039062 581.423828125 -116.326171875 576.75 -121 c 0
 573.317382812 -124.432617188 569.327148438 -126.958984375 565.07421875 -128.578125 c 0
 561.170898438 -130.125 556.959960938 -131 552.75 -131 c 0
 551.75 -131 549.75 -131 548.75 -131 c 2
 349.75 -104 l 2
 342.75 -103 335.75 -100 330.75 -95 c 0
 323.75 -88 320.75 -80 320.75 -71 c 0
 320.75 -62 323.75 -54 330.75 -47 c 0
 337.75 -40 345.75 -38 354.75 -38 c 0
 355.75 -38 357.75 -38 358.75 -38 c 2
 459.787109375 -51.037109375 l 1
 34.75 374 l 2
EndSplineSet
EndChar

StartChar: uni2199
Encoding: 9 8601 9
Width: 612
Flags: HW
LayerCount: 2
Fore
SplineSet
61.15234375 125 m 0
 68.15234375 132 76.15234375 135 85.15234375 135 c 0
 94.15234375 135 101.15234375 132 108.15234375 125 c 0
 115.15234375 118 118.15234375 110 118.15234375 101 c 0
 118.15234375 99.2548828125 104.208984375 99.7939453125 104.208984375 -4.9423828125 c 1
 530.15234375 421 l 2
 543.15234375 434 564.15234375 434 577.15234375 421 c 0
 590.15234375 408 590.15234375 387 577.15234375 374 c 2
 152.2109375 -50.94140625 l 1
 253.15234375 -38 l 2
 254.15234375 -38 256.15234375 -38 257.15234375 -38 c 0
 266.15234375 -38 274.15234375 -40 281.15234375 -47 c 0
 288.15234375 -54 291.15234375 -62 291.15234375 -71 c 0
 291.15234375 -80 288.15234375 -88 281.15234375 -95 c 0
 276.15234375 -100 269.15234375 -103 262.15234375 -104 c 0
 63.15234375 -130 63.15234375 -131 63.15234375 -131 c 2
 62.15234375 -131 61.15234375 -131 59.15234375 -131 c 0
 54.9169921875 -131 48.6884765625 -130.00390625 42.5771484375 -126.603515625 c 0
 39.916015625 -125.12890625 37.4130859375 -123.260742188 35.15234375 -121 c 0
 28.15234375 -114 24.15234375 -104 25.15234375 -93 c 2
 51.15234375 106 l 2
 52.15234375 113 56.15234375 120 61.15234375 125 c 0
EndSplineSet
EndChar

StartChar: uni219A
Encoding: 10 8602 10
Width: 817
Flags: HW
LayerCount: 2
Fore
SplineSet
334 -34 m 0
 316 -34 300 -18 300 0 c 0
 300 5 302 10 304 15 c 0
 304.388184905 16.1645547136 326.776747744 61.1791777778 354.143753923 116 c 1
 158.378947368 116 l 1
 238 55 l 2
 246 49 251 39 251 28 c 0
 251 10 236 -6 218 -6 c 0
 210 -6 203 -3 197 1 c 0
 38 123 38 123 38 123 c 2
 34 126 25 135 25 150 c 0
 25 160 29 170 38 177 c 2
 197 299 l 2
 203 303 210 306 218 306 c 0
 236 306 251 290 251 272 c 0
 251 261 246 251 238 245 c 2
 158.378947368 184 l 1
 388.127741444 184 l 1
 421.854860194 251.415141976 453.085501563 313.628252345 454 315 c 0
 460 326 471 334 484 334 c 0
 502 334 517 318 517 300 c 0
 517 295 515 290 513 285 c 0
 512.611815095 283.835445286 490.223252256 238.820822222 462.856246077 184 c 1
 758 184 l 2
 776 184 792 168 792 150 c 0
 792 132 776 116 758 116 c 2
 428.872258556 116 l 1
 395.145139806 48.5848580237 363.914498437 -13.6282523445 363 -15 c 0
 358 -26 347 -34 334 -34 c 0
EndSplineSet
EndChar

StartChar: uni219B
Encoding: 11 8603 11
Width: 817
Flags: HW
LayerCount: 2
Fore
SplineSet
58 116 m 2
 40 116 25 132 25 150 c 0
 25 168 40 184 58 184 c 2
 388.127741444 184 l 1
 421.854860194 251.415141976 453.085501563 313.628252345 454 315 c 0
 460 326 471 334 484 334 c 0
 502 334 517 318 517 300 c 0
 517 295 515 290 513 285 c 0
 512.611815095 283.835445286 490.223252256 238.820822222 462.856246077 184 c 1
 658.824587917 184 l 1
 640.577599803 197.888049285 614.961333507 217.448978362 579 245 c 0
 571 251 566 261 566 272 c 0
 566 290 581 306 599 306 c 0
 607 306 614 303 620 299 c 2
 779 177 l 2
 788 170 792 160 792 150 c 0
 792 135 783 126 779 123 c 2
 779 123 779 123 620 1 c 0
 614 -3 607 -6 599 -6 c 0
 581 -6 566 10 566 28 c 0
 566 39 571 49 579 55 c 2
 659.263157895 116 l 1
 428.872258556 116 l 1
 395.145139806 48.5848580237 363.914498437 -13.6282523445 363 -15 c 0
 358 -26 347 -34 334 -34 c 0
 316 -34 300 -18 300 0 c 0
 300 5 302 10 304 15 c 0
 304.388184905 16.1645547136 326.776747744 61.1791777778 354.143753923 116 c 1
 58 116 l 2
EndSplineSet
EndChar

StartChar: uni21A2
Encoding: 12 8610 12
Width: 817
Flags: HW
LayerCount: 2
Fore
SplineSet
218 306 m 0
 236 306 251 290 251 272 c 0
 251 261 246 251 238 245 c 2
 158.378947368 184 l 1
 588.12295082 184 l 1
 738 299 l 2
 744 303 751 306 759 306 c 0
 777 306 792 290 792 272 c 0
 792 261 787 251 779 245 c 0
 655 150 655 150 655 150 c 1
 779 55 l 2
 787 49 792 39 792 28 c 0
 792 10 777 -6 759 -6 c 0
 751 -6 744 -3 738 1 c 2
 588.12295082 116 l 1
 158.378947368 116 l 1
 238 55 l 2
 246 49 251 39 251 28 c 0
 251 10 236 -6 218 -6 c 0
 210 -6 203 -3 197 1 c 0
 38 123 38 123 38 123 c 2
 34 126 25 135 25 150 c 0
 25 160 29 170 38 177 c 2
 197 299 l 2
 203 303 210 306 218 306 c 0
EndSplineSet
EndChar

StartChar: uni21A3
Encoding: 13 8611 13
Width: 817
Flags: HW
LayerCount: 2
Fore
SplineSet
599 306 m 0
 607 306 614 303 620 299 c 2
 779 177 l 2
 788 170 792 160 792 150 c 0
 792 135 783 126 779 123 c 2
 779 123 779 123 620 1 c 0
 614 -3 607 -6 599 -6 c 0
 581 -6 566 10 566 28 c 0
 566 39 571 49 579 55 c 2
 659.263157895 116 l 1
 228.87704918 116 l 1
 79 1 l 2
 73 -3 66 -6 58 -6 c 0
 40 -6 25 10 25 28 c 0
 25 39 30 49 38 55 c 2
 163 150 l 1
 163 150 162 150 38 245 c 0
 30 251 25 261 25 272 c 0
 25 290 40 306 58 306 c 0
 66 306 73 303 79 299 c 2
 228.87704918 184 l 1
 658.824587917 184 l 1
 640.577599803 197.888049285 614.961333507 217.448978362 579 245 c 0
 571 251 566 261 566 272 c 0
 566 290 581 306 599 306 c 0
EndSplineSet
EndChar

StartChar: uni21A4
Encoding: 14 8612 14
Width: 817
Flags: HW
LayerCount: 2
Fore
SplineSet
792 34 m 2
 792 16 776 0 758 0 c 0
 740 0 725 16 725 34 c 2
 725 116 l 1
 158.378947368 116 l 1
 238 55 l 2
 246 49 251 39 251 28 c 0
 251 10 236 -6 218 -6 c 0
 210 -6 203 -3 197 1 c 0
 38 123 38 123 38 123 c 2
 34 126 25 135 25 150 c 0
 25 160 29 170 38 177 c 2
 197 299 l 2
 203 303 210 306 218 306 c 0
 236 306 251 290 251 272 c 0
 251 261 246 251 238 245 c 2
 158.378947368 184 l 1
 725 184 l 1
 725 266 l 2
 725 284 740 300 758 300 c 0
 776 300 792 284 792 266 c 2
 792 150 l 1
 792 34 l 2
EndSplineSet
EndChar

StartChar: uni21A5
Encoding: 15 8613 15
Width: 361
Flags: HW
LayerCount: 2
Fore
SplineSet
64 -234 m 2
 46 -234 31 -218 31 -200 c 0
 31 -182 46 -166 64 -166 c 2
 147 -166 l 1
 147 401.651367188 l 1
 132.943359375 383.46484375 113.077148438 357.6484375 85 321 c 0
 79 313 69 308 58 308 c 0
 40 308 25 323 25 341 c 0
 25 349 28 356 32 362 c 2
 154 521 l 2
 161 530 171 534 181 534 c 0
 192.678710938 534 200.114257812 528.544921875 204.25 524.240234375 c 0
 206.495117188 522.079101562 208.465820312 519.6328125 210.086914062 516.977539062 c 2
 329 362 l 2
 333 356 336 349 336 341 c 0
 336 323 321 308 303 308 c 0
 292 308 282 313 276 321 c 2
 215 400.62109375 l 1
 215 -166 l 1
 298 -166 l 2
 316 -166 331 -182 331 -200 c 0
 331 -218 316 -234 298 -234 c 2
 181 -234 l 1
 64 -234 l 2
EndSplineSet
EndChar

StartChar: uni21A6
Encoding: 16 8614 16
Width: 817
Flags: HW
LayerCount: 2
Fore
SplineSet
92 34 m 2
 92 16 76 0 58 0 c 0
 40 0 25 16 25 34 c 2
 25 150 l 1
 25 266 l 2
 25 284 40 300 58 300 c 0
 76 300 92 284 92 266 c 2
 92 184 l 1
 658.824587917 184 l 1
 640.577599803 197.888049285 614.961333507 217.448978362 579 245 c 0
 571 251 566 261 566 272 c 0
 566 290 581 306 599 306 c 0
 607 306 614 303 620 299 c 2
 779 177 l 2
 788 170 792 160 792 150 c 0
 792 135 783 126 779 123 c 2
 779 123 779 123 620 1 c 0
 614 -3 607 -6 599 -6 c 0
 581 -6 566 10 566 28 c 0
 566 39 571 49 579 55 c 2
 659.263157895 116 l 1
 92 116 l 1
 92 34 l 2
EndSplineSet
EndChar

StartChar: uni21A7
Encoding: 17 8615 17
Width: 361
Flags: HW
LayerCount: 2
Fore
SplineSet
64 466 m 2
 46 466 31 482 31 500 c 0
 31 518 46 534 64 534 c 2
 181 534 l 1
 298 534 l 2
 316 534 331 518 331 500 c 0
 331 482 316 466 298 466 c 2
 215 466 l 1
 215 -100.62109375 l 1
 276 -21 l 2
 282 -13 292 -8 303 -8 c 0
 321 -8 336 -23 336 -41 c 0
 336 -49 333 -56 329 -62 c 2
 210.086914062 -216.977539062 l 2
 208.465820312 -219.6328125 206.495117188 -222.079101562 204.25 -224.240234375 c 0
 200.114257812 -228.544921875 192.678710938 -234 181 -234 c 0
 171 -234 161 -230 154 -221 c 2
 32 -62 l 2
 28 -56 25 -49 25 -41 c 0
 25 -23 40 -8 58 -8 c 0
 69 -8 79 -13 85 -21 c 0
 113.077148438 -57.6484375 132.943359375 -83.46484375 147 -101.651367188 c 1
 147 466 l 1
 64 466 l 2
EndSplineSet
EndChar

StartChar: arrowupdnbse
Encoding: 18 8616 18
Width: 361
Flags: HW
LayerCount: 2
Fore
SplineSet
64 -234 m 2
 46 -234 31 -218 31 -200 c 0
 31 -182 46 -166 64 -166 c 2
 298 -166 l 2
 316 -166 331 -182 331 -200 c 0
 331 -218 316 -234 298 -234 c 2
 64 -234 l 2
25 341 m 0
 25 349 28 356 32 362 c 2
 154 521 l 2
 161 530 171 534 181 534 c 0
 192.682617188 534 200.119140625 528.541015625 204.25390625 524.236328125 c 0
 206.497070312 522.076171875 208.465820312 519.631835938 210.0859375 516.978515625 c 2
 329 362 l 2
 333 356 336 349 336 341 c 0
 336 323 321 308 303 308 c 0
 292 308 282 313 276 321 c 2
 215 400.62109375 l 1
 215 17.37890625 l 1
 276 97 l 2
 282 105 292 110 303 110 c 0
 321 110 336 95 336 77 c 0
 336 69 333 62 329 56 c 2
 210.086914062 -98.9775390625 l 2
 208.465820312 -101.6328125 206.495117188 -104.079101562 204.25 -106.240234375 c 0
 200.114257812 -110.544921875 192.678710938 -116 181 -116 c 0
 171 -116 161 -112 154 -103 c 2
 32 56 l 2
 28 62 25 69 25 77 c 0
 25 95 40 110 58 110 c 0
 69 110 79 105 85 97 c 0
 113.077148438 60.3515625 132.943359375 34.53515625 147 16.3486328125 c 1
 147 401.651367188 l 1
 132.943359375 383.46484375 113.077148438 357.6484375 85 321 c 0
 79 313 69 308 58 308 c 0
 40 308 25 323 25 341 c 0
EndSplineSet
EndChar

StartChar: uni21A9
Encoding: 19 8617 19
Width: 550
Flags: HW
LayerCount: 2
Fore
SplineSet
276 -33 m 2
 378 -33 458 49 458 150 c 0
 458 252 378 333 276 333 c 2
 58 333 l 2
 40 333 25 348 25 366 c 0
 25 384 40 400 58 400 c 2
 276 400 l 2
 416 400 525 288 525 150 c 0
 525 13 416 -100 276 -100 c 2
 158.378947368 -100 l 1
 238 -161 l 2
 246 -167 251 -177 251 -188 c 0
 251 -206 236 -222 218 -222 c 0
 210 -222 203 -219 197 -215 c 0
 38 -93 38 -93 38 -93 c 2
 34 -90 25 -81 25 -66 c 0
 25 -56 29 -46 38 -39 c 2
 197 83 l 2
 203 87 210 90 218 90 c 0
 236 90 251 74 251 56 c 0
 251 45 246 35 238 29 c 2
 157.073684211 -33 l 1
 276 -33 l 2
EndSplineSet
EndChar

StartChar: uni21AA
Encoding: 20 8618 20
Width: 550
Flags: HW
LayerCount: 2
Fore
SplineSet
274 333 m 2
 172 333 92 251 92 150 c 0
 92 48 172 -33 274 -33 c 2
 393.138597773 -33 l 1
 374.813432422 -19.0555961445 348.833060729 0.781122828794 312 29 c 0
 304 35 299 45 299 56 c 0
 299 74 314 90 332 90 c 0
 340 90 347 87 353 83 c 2
 512 -39 l 2
 521 -46 525 -56 525 -66 c 0
 525 -81 516 -90 512 -93 c 2
 512 -93 512 -93 353 -215 c 0
 347 -219 340 -222 332 -222 c 0
 314 -222 299 -206 299 -188 c 0
 299 -177 304 -167 312 -161 c 2
 392.263157895 -100 l 1
 274 -100 l 2
 134 -100 25 12 25 150 c 0
 25 287 134 400 274 400 c 2
 492 400 l 2
 510 400 525 384 525 366 c 0
 525 348 510 333 492 333 c 2
 274 333 l 2
EndSplineSet
EndChar

StartChar: uni21AE
Encoding: 21 8622 21
Width: 817
Flags: HW
LayerCount: 2
Fore
SplineSet
218 306 m 0
 236 306 251 290 251 272 c 0
 251 261 246 251 238 245 c 2
 158.378947368 184 l 1
 388.127741444 184 l 1
 421.854860194 251.415141976 453.085501563 313.628252345 454 315 c 0
 460 326 471 334 484 334 c 0
 502 334 517 318 517 300 c 0
 517 295 515 290 513 285 c 0
 512.611815095 283.835445286 490.223252256 238.820822222 462.856246077 184 c 1
 658.824587917 184 l 1
 640.577599803 197.888049285 614.961333507 217.448978362 579 245 c 0
 571 251 566 261 566 272 c 0
 566 290 581 306 599 306 c 0
 607 306 614 303 620 299 c 2
 779 177 l 2
 788 170 792 160 792 150 c 0
 792 135 783 126 779 123 c 2
 779 123 779 123 620 1 c 0
 614 -3 607 -6 599 -6 c 0
 581 -6 566 10 566 28 c 0
 566 39 571 49 579 55 c 2
 659.263157895 116 l 1
 428.872258556 116 l 1
 395.145139806 48.5848580237 363.914498437 -13.6282523445 363 -15 c 0
 358 -26 347 -34 334 -34 c 0
 316 -34 300 -18 300 0 c 0
 300 5 302 10 304 15 c 0
 304.388184905 16.1645547136 326.776747744 61.1791777778 354.143753923 116 c 1
 158.378947368 116 l 1
 238 55 l 2
 246 49 251 39 251 28 c 0
 251 10 236 -6 218 -6 c 0
 210 -6 203 -3 197 1 c 0
 38 123 38 123 38 123 c 2
 34 126 25 135 25 150 c 0
 25 160 29 170 38 177 c 2
 197 299 l 2
 203 303 210 306 218 306 c 0
EndSplineSet
EndChar

StartChar: uni21B0
Encoding: 22 8624 22
Width: 551
Flags: HW
LayerCount: 2
Fore
SplineSet
492 400 m 2
 510 400 526 385 526 366 c 2
 526 -66 l 2
 526 -84 510 -100 492 -100 c 0
 474 -100 459 -84 459 -66 c 2
 459 333 l 1
 157.073684211 333 l 1
 238 271 l 2
 246 265 251 255 251 244 c 0
 251 226 236 210 218 210 c 0
 210 210 203 213 197 217 c 0
 38 339 38 339 38 339 c 2
 34 342 25 351 25 366 c 0
 25 376 29 386 38 393 c 2
 197 515 l 2
 203 519 210 522 218 522 c 0
 236 522 251 506 251 488 c 0
 251 477 246 467 238 461 c 2
 158.378947368 400 l 1
 492 400 l 2
EndSplineSet
EndChar

StartChar: uni21B1
Encoding: 23 8625 23
Width: 550
Flags: HW
LayerCount: 2
Fore
SplineSet
25 367 m 2
 25 385 40 400 59 400 c 2
 393.138597773 400 l 1
 374.813432422 413.944403856 348.833060729 433.781122829 312 462 c 0
 304 468 299 478 299 489 c 0
 299 507 314 523 332 523 c 0
 340 523 347 520 353 516 c 2
 512 394 l 2
 521 387 525 377 525 367 c 0
 525 352 516 343 512 340 c 2
 512 340 512 340 353 218 c 0
 347 214 340 211 332 211 c 0
 314 211 299 227 299 245 c 0
 299 256 304 266 312 272 c 2
 393.578947368 334 l 1
 92 334 l 1
 92 -67 l 2
 92 -85 76 -100 58 -100 c 0
 40 -100 25 -85 25 -67 c 2
 25 367 l 2
EndSplineSet
EndChar

StartChar: uni21B2
Encoding: 24 8626 24
Width: 550
Flags: HW
LayerCount: 2
Fore
SplineSet
525 -67 m 2
 525 -85 510 -100 491 -100 c 2
 157.073684211 -100 l 1
 238 -162 l 2
 246 -168 251 -178 251 -189 c 0
 251 -207 236 -223 218 -223 c 0
 210 -223 203 -220 197 -216 c 0
 38 -94 38 -94 38 -94 c 2
 34 -91 25 -82 25 -67 c 0
 25 -57 29 -47 38 -40 c 2
 197 82 l 2
 203 86 210 89 218 89 c 0
 236 89 251 73 251 55 c 0
 251 44 246 34 238 28 c 2
 157.073684211 -34 l 1
 458 -34 l 1
 458 367 l 2
 458 385 474 400 492 400 c 0
 510 400 525 385 525 367 c 2
 525 -67 l 2
EndSplineSet
EndChar

StartChar: uni21B3
Encoding: 25 8627 25
Width: 551
Flags: HW
LayerCount: 2
Fore
SplineSet
58 -100 m 2
 40 -100 25 -85 25 -66 c 2
 25 366 l 2
 25 384 40 400 58 400 c 0
 76 400 92 384 92 366 c 2
 92 -33 l 1
 394.138597773 -33 l 1
 375.813432422 -19.0555961445 349.833060729 0.781122828794 313 29 c 0
 305 35 300 45 300 56 c 0
 300 74 315 90 333 90 c 0
 341 90 348 87 354 83 c 2
 513 -39 l 2
 522 -46 526 -56 526 -66 c 0
 526 -81 517 -90 513 -93 c 2
 513 -93 513 -93 354 -215 c 0
 348 -219 341 -222 333 -222 c 0
 315 -222 300 -206 300 -188 c 0
 300 -177 305 -167 313 -161 c 2
 393.263157895 -100 l 1
 58 -100 l 2
EndSplineSet
EndChar

StartChar: uni21B4
Encoding: 26 8628 26
Width: 672
Flags: HW
LayerCount: 2
Fore
SplineSet
492 400 m 2
 510 400 526 385 526 366 c 2
 526 33.3789473684 l 1
 587 113 l 2
 593 121 603 126 614 126 c 0
 632 126 647 111 647 93 c 0
 647 85 644 78 640 72 c 2
 521.086711619 -82.977154529 l 2
 519.466202531 -85.632647715 517.495030095 -88.0793897761 515.249899865 -90.2406776752 c 0
 511.113844623 -94.5444981813 503.678505236 -99.9999987169 492 -100 c 0
 482 -100 472 -96 465 -87 c 2
 343 72 l 2
 339 78 336 85 336 93 c 0
 336 111 351 126 369 126 c 0
 380 126 390 121 396 113 c 0
 424.749698285 75.4740780275 444.890505242 49.3045658928 459 31.0546914228 c 1
 459 333 l 1
 58 333 l 2
 40 333 25 348 25 366 c 0
 25 384 40 400 58 400 c 2
 492 400 l 2
EndSplineSet
EndChar

StartChar: carriagereturn
Encoding: 27 8629 27
Width: 550
Flags: HW
LayerCount: 2
Fore
SplineSet
525 -67 m 2
 525 -85 510 -100 491 -100 c 2
 157.073684211 -100 l 1
 238 -162 l 2
 246 -168 251 -178 251 -189 c 0
 251 -207 236 -223 218 -223 c 0
 210 -223 203 -220 197 -216 c 0
 38 -94 38 -94 38 -94 c 2
 34 -91 25 -82 25 -67 c 0
 25 -57 29 -47 38 -40 c 2
 197 82 l 2
 203 86 210 89 218 89 c 0
 236 89 251 73 251 55 c 0
 251 44 246 34 238 28 c 2
 157.073684211 -34 l 1
 458 -34 l 1
 458 367 l 2
 458 385 474 400 492 400 c 0
 510 400 525 385 525 367 c 2
 525 -67 l 2
EndSplineSet
EndChar

StartChar: uni21B6
Encoding: 28 8630 28
Width: 602
Flags: HW
LayerCount: 2
Fore
SplineSet
27 248 m 0
 34 265 54 273 71 266 c 0
 81 262 89 254 91 244 c 0
 99.2490234375 212.860351562 105.838867188 188.142578125 111.104492188 168.521484375 c 1
 154.736328125 242.884765625 235.787109375 292 328 292 c 0
 465 292 577 182 577 42 c 0
 577 24 562 8 544 8 c 0
 526 8 510 24 510 42 c 0
 510 144 429 224 328 224 c 0
 248.887695312 224 181.807617188 175.874023438 155.685546875 106.685546875 c 1
 267 171 l 2
 276 176 287 177 297 173 c 0
 314 166 322 146 315 129 c 0
 312 122 306 117 300 113 c 0
 126 13 127 12 127 12 c 2
 123 9 112 4 98 10 c 0
 89 14 81 22 78 33 c 2
 26 226 l 2
 25 233 24 241 27 248 c 0
EndSplineSet
EndChar

StartChar: uni21B7
Encoding: 29 8631 29
Width: 602
Flags: HW
LayerCount: 2
Fore
SplineSet
92 42 m 0
 92 24 76 8 58 8 c 0
 40 8 25 24 25 42 c 0
 25 182 138 292 276 292 c 0
 367.455939782 292 447.770917178 242.979765498 491.063202228 168.738588411 c 1
 511 244 l 2
 513 254 521 262 531 266 c 0
 548 273 568 265 575 248 c 0
 578 241 577 233 576 226 c 0
 524 32 524 33 524 33 c 2
 523.057759401 28.288797007 519.452066766 18.2506899401 507.327158829 12.0875926636 c 0
 504.05241666 10.242538193 500.461636242 8.95282420682 496.678603924 8.36286842407 c 0
 489.660901463 7.01288421127 482.079830644 7.75210240798 475 12 c 2
 302 113 l 2
 296 117 290 122 287 129 c 0
 280 146 288 166 305 173 c 0
 315 177 326 176 335 171 c 0
 394.063165976 136.874615214 427.477316036 117.679254618 446.380278107 106.881958976 c 1
 420.515849469 175.965698285 354.262212449 224 276 224 c 0
 174 224 92 144 92 42 c 0
EndSplineSet
EndChar

StartChar: uni21BA
Encoding: 30 8634 30
Width: 652
Flags: HW
LayerCount: 2
Fore
SplineSet
129 337 m 0
 147 337 162 321 162 303 c 0
 162 290 155 280 145 274 c 0
 145 273 125 253 109 219 c 0
 99 198 92 174 92 150 c 0
 92 47 174 -34 276 -34 c 0
 377 -34 458 47 458 150 c 0
 458 183 452 207 445 225 c 0
 444.03530093 227.465342067 443.047622989 229.827279212 442.040660716 232.094432239 c 1
 434.303385103 214.126020013 419.052554462 178.126130491 389 106 c 0
 385 97 377 89 366 86 c 0
 349 81 331 92 326 109 c 0
 324 117 325 125 327 132 c 2
 404 317 l 2
 408 328 417 333 427 336 c 0
 441 340 451 333 455 330 c 2
 455 330 455 330 614 208 c 0
 619 203 624 198 626 190 c 0
 631 173 620 155 603 150 c 0
 592 147 582 149 574 155 c 2
 521.838938135 194.962103848 l 1
 523.84775031 181.311884687 525 166.36851781 525 150 c 0
 525 11 413 -100 276 -100 c 0
 138 -100 25 11 25 150 c 0
 25 201 44 246 64 278 c 0
 72 290 92 321 112 332 c 0
 117 335 123 337 129 337 c 0
EndSplineSet
EndChar

StartChar: uni21BB
Encoding: 31 8635 31
Width: 638
Flags: HW
LayerCount: 2
Fore
SplineSet
26.212890625 191 m 0
 28.212890625 199 33.212890625 204 38.212890625 209 c 2
 197.212890625 331 l 2
 206.212890625 338 216.212890625 340 226.212890625 337 c 0
 240.212890625 333 246.212890625 323 248.212890625 318 c 2
 325.212890625 133 l 2
 327.212890625 126 328.212890625 118 326.212890625 110 c 0
 321.212890625 93 303.212890625 82 286.212890625 87 c 0
 275.212890625 90 267.212890625 98 263.212890625 107 c 2
 208.079101562 239.322265625 l 1
 204.43359375 233.258789062 200.7265625 226.466796875 197.212890625 219 c 0
 187.212890625 198 180.212890625 174 180.212890625 150 c 0
 180.212890625 47 262.212890625 -34 364.212890625 -34 c 0
 465.212890625 -34 546.212890625 47 546.212890625 150 c 0
 546.212890625 183 540.212890625 207 533.212890625 225 c 0
 524.212890625 248 513.212890625 262 503.212890625 274 c 0
 494.212890625 285 489.212890625 291 489.212890625 303 c 0
 489.212890625 321 504.212890625 336 522.212890625 336 c 0
 533.212890625 336 543.212890625 331 549.212890625 323 c 0
 550.212890625 322 553.212890625 319 555.212890625 316 c 0
 575.212890625 291 613.212890625 244 613.212890625 150 c 0
 613.212890625 11 501.212890625 -100 364.212890625 -100 c 0
 226.212890625 -100 113.212890625 11 113.212890625 150 c 0
 113.212890625 162.045898438 114.2734375 173.756835938 116.15625 185.041015625 c 1
 104.999023438 176.51171875 92.412109375 166.87890625 78.212890625 156 c 0
 70.212890625 150 60.212890625 148 49.212890625 151 c 0
 32.212890625 156 21.212890625 174 26.212890625 191 c 0
EndSplineSet
EndChar

StartChar: uni21BC
Encoding: 32 8636 32
Width: 817
Flags: HW
LayerCount: 2
Fore
SplineSet
157.842975207 184 m 1
 758 184 l 2
 776 184 792 168 792 150 c 0
 792 132 776 116 758 116 c 2
 58 116 l 2
 44.9028845532 116 33.3940508936 124.470836199 28.096145189 136.019420615 c 0
 25.926883705 140.46928379 25.0000004836 145.234642006 25 150 c 0
 25 160 29 170 38 177 c 2
 197 298 l 2
 203 303 210 305 217 305 c 0
 227 305 237 301 244 292 c 0
 249 286 251 279 251 272 c 0
 251 262 247 252 238 245 c 2
 157.842975207 184 l 1
EndSplineSet
EndChar

StartChar: uni21BD
Encoding: 33 8637 33
Width: 817
Flags: HW
LayerCount: 2
Fore
SplineSet
157.842975207 116 m 1
 238 55 l 2
 247 48 251 38 251 28 c 0
 251 21 249 14 244 8 c 0
 237 -1 227 -5 217 -5 c 0
 210 -5 203 -3 197 2 c 2
 38 123 l 2
 29 130 25 140 25 150 c 0
 25 154.765356315 25.9268824818 159.530712629 28.0961426517 163.980574021 c 0
 33.3940467621 175.529161419 44.9028819683 184.000000259 58 184 c 2
 758 184 l 2
 776 184 792 168 792 150 c 0
 792 132 776 116 758 116 c 2
 157.842975207 116 l 1
EndSplineSet
EndChar

StartChar: uni21BE
Encoding: 34 8638 34
Width: 240
Flags: HW
LayerCount: 2
Fore
SplineSet
93 -200 m 2
 93 -218 77 -234 59 -234 c 0
 41 -234 25 -218 25 -200 c 2
 25 500 l 2
 25 510.830501213 30.7925805695 520.936929855 39.3280493586 527.269591003 c 0
 45.254383548 532.072022482 52.127191226 534.000001477 59 534 c 0
 69 534 79 530 86 521 c 2
 208 362 l 2
 213 356 215 349 215 342 c 0
 215 332 211 322 202 315 c 0
 196 310 188 308 181 308 c 0
 171 308 162 312 155 321 c 2
 93 401.803278689 l 1
 93 -200 l 2
EndSplineSet
EndChar

StartChar: uni21BF
Encoding: 35 8639 35
Width: 239
Flags: HW
LayerCount: 2
Fore
SplineSet
214 -200 m 2
 214 -218 198 -234 180 -234 c 0
 162 -234 146 -218 146 -200 c 2
 146 400.5 l 1
 85 321 l 2
 78 312 68 308 58 308 c 0
 51 308 44 310 38 315 c 0
 29 322 25 332 25 342 c 0
 25 349 27 356 32 362 c 2
 150.913085938 516.977539062 l 2
 152.754882812 519.994140625 155.048828125 522.7421875 157.682617188 525.108398438 c 0
 164.043945312 531.228515625 171.67578125 534 180 534 c 0
 187 534 195 532 201 527 c 0
 210 520 214 510 214 500 c 2
 214 -200 l 2
EndSplineSet
EndChar
